<?xml version="1.0" standalone="no"?>
<!DOCTYPE svg PUBLIC "-//W3C//DTD SVG 20010904//EN"
 "http://www.w3.org/TR/2001/REC-SVG-20010904/DTD/svg10.dtd">
<svg version="1.0" xmlns="http://www.w3.org/2000/svg"
 width="740.000000pt" height="740.000000pt" viewBox="0 0 740.000000 740.000000"
 preserveAspectRatio="xMidYMid meet">

<g transform="translate(0.000000,740.000000) scale(0.100000,-0.100000)"
fill="#000000" stroke="none">
<path d="M4520 6691 c0 -6 5 -13 10 -16 6 -3 10 1 10 9 0 9 -4 16 -10 16 -5 0
-10 -4 -10 -9z"/>
<path d="M4095 6680 c-8 -12 20 -24 35 -15 6 3 8 11 5 16 -8 12 -32 12 -40 -1z"/>
<path d="M6240 6515 c0 -8 9 -15 20 -15 11 0 20 7 20 15 0 8 -9 15 -20 15 -11
0 -20 -7 -20 -15z"/>
<path d="M4353 6513 c-13 -2 -23 -9 -23 -14 0 -5 -9 -9 -21 -9 -11 0 -40 -13
-64 -30 -24 -16 -50 -30 -57 -30 -8 0 -23 -7 -34 -16 -18 -14 -16 -15 21 -9
22 4 50 13 62 21 26 16 43 18 43 4 0 -5 -9 -10 -20 -10 -11 0 -20 -4 -20 -10
0 -14 33 -13 47 1 6 6 10 17 9 23 -2 6 -1 8 1 4 3 -5 13 -8 23 -8 24 0 34 28
12 33 -13 2 -7 9 21 26 35 22 46 33 30 30 -5 -1 -18 -4 -30 -6z"/>
<path d="M4996 6442 c-3 -6 -1 -14 5 -17 15 -10 25 3 12 16 -7 7 -13 7 -17 1z"/>
<path d="M3970 6410 c0 -24 36 -35 72 -21 31 12 50 36 22 28 -61 -19 -74 -19
-74 -3 0 9 -4 16 -10 16 -5 0 -10 -9 -10 -20z"/>
<path d="M4830 6410 c0 -5 5 -10 10 -10 6 0 10 5 10 10 0 6 -4 10 -10 10 -5 0
-10 -4 -10 -10z"/>
<path d="M4061 6377 c-35 -21 -115 -40 -164 -39 -15 1 -25 -3 -22 -8 6 -10 -1
-14 -47 -24 -15 -3 -33 -12 -40 -19 -7 -7 -29 -19 -48 -27 -50 -20 -162 -82
-157 -86 2 -3 16 0 31 6 15 5 38 10 52 10 15 0 24 6 24 15 0 10 11 15 35 15
46 0 44 -12 -4 -33 -44 -20 -57 -40 -35 -57 11 -10 14 -10 14 0 0 7 6 10 14 7
8 -3 16 -3 18 1 2 5 20 18 41 31 20 12 37 29 37 37 0 7 40 34 90 59 95 48 121
56 100 30 -7 -8 -17 -15 -22 -15 -23 0 -118 -53 -118 -66 0 -16 22 -18 48 -4
9 5 56 28 105 50 56 26 87 46 87 56 0 13 -7 15 -37 10 l-38 -7 25 21 c14 11
37 25 53 32 15 7 27 16 27 20 0 14 -34 7 -69 -15z"/>
<path d="M4558 6364 c3 -17 8 -22 15 -15 11 11 3 41 -11 41 -5 0 -7 -12 -4
-26z"/>
<path d="M4125 6349 c-11 -17 -2 -18 25 -4 24 14 24 14 3 15 -12 0 -25 -5 -28
-11z"/>
<path d="M6022 6348 c6 -18 28 -21 28 -4 0 9 -7 16 -16 16 -9 0 -14 -5 -12
-12z"/>
<path d="M2460 6310 c0 -15 7 -20 25 -20 29 0 32 8 8 26 -25 19 -33 17 -33 -6z"/>
<path d="M5850 6316 c0 -9 5 -16 10 -16 6 0 10 4 10 9 0 6 -4 13 -10 16 -5 3
-10 -1 -10 -9z"/>
<path d="M4170 6289 c-36 -12 -126 -45 -201 -75 -75 -30 -143 -52 -152 -48 -9
3 -29 -8 -51 -30 -19 -20 -44 -36 -54 -36 -10 0 -22 -4 -28 -9 -5 -4 -22 -11
-39 -15 l-30 -7 24 19 c21 17 22 20 6 26 -10 3 -38 -1 -62 -10 -33 -13 -47
-14 -55 -6 -18 18 -33 15 -66 -13 -17 -14 -38 -25 -48 -26 -11 0 -41 -11 -69
-24 -45 -21 -50 -22 -61 -7 -10 14 -14 14 -28 3 -14 -12 -18 -11 -30 4 -13 18
-56 14 -56 -6 0 -5 -7 -9 -15 -9 -18 0 -18 -5 -5 -29 6 -13 17 -17 35 -13 l26
5 -24 -27 c-32 -35 -60 -35 -51 -1 5 21 3 25 -15 25 -23 0 -29 15 -8 23 7 4 6
6 -5 6 -9 1 -20 -12 -27 -30 -14 -42 -14 -49 4 -49 8 0 15 -7 15 -15 0 -8 -5
-15 -12 -15 -20 0 -98 -41 -98 -51 0 -6 -4 -8 -10 -4 -5 3 -26 -1 -46 -10 -52
-22 -51 -14 2 20 26 16 41 31 35 33 -15 5 -14 18 5 37 25 24 12 27 -31 6 -23
-11 -33 -21 -26 -25 18 -12 13 -36 -8 -36 -11 0 -26 -7 -35 -15 -8 -8 -21 -15
-28 -15 -8 0 -23 -7 -34 -15 -18 -15 -16 -15 25 -9 31 4 42 3 37 -5 -4 -6 -16
-11 -26 -11 -11 0 -33 -13 -50 -30 -37 -36 -57 -38 -62 -8 -2 13 -10 24 -19
26 -20 4 -84 -40 -84 -58 0 -15 10 -16 55 -5 14 3 0 -7 -31 -24 -63 -33 -95
-71 -76 -90 8 -8 8 -11 -2 -11 -7 0 -19 7 -28 16 -11 11 -19 12 -26 5 -6 -6
-21 -11 -33 -11 -12 0 -27 -6 -33 -13 -6 -8 -28 -19 -48 -25 -48 -15 -132 -68
-140 -88 -8 -22 4 -29 32 -16 14 6 34 8 45 4 20 -7 19 -9 -10 -31 -18 -12 -34
-20 -38 -17 -3 4 3 13 14 21 32 24 -5 18 -52 -9 -31 -18 -52 -22 -93 -20 -50
3 -52 3 -58 -26 -6 -31 -11 -34 -37 -24 -25 10 -19 29 24 74 29 31 38 46 30
55 -5 6 -7 15 -3 18 3 4 2 7 -4 7 -6 0 -16 -7 -23 -15 -7 -8 -9 -15 -5 -15 20
0 -25 -34 -103 -78 -48 -27 -124 -71 -170 -97 -71 -41 -84 -45 -99 -34 -14 12
-16 12 -11 -1 6 -20 -13 -34 -182 -130 -184 -105 -204 -120 -191 -133 7 -7 14
-7 23 0 21 16 48 23 48 13 0 -5 -11 -12 -24 -16 -29 -7 -70 -49 -62 -62 3 -6
15 -8 26 -5 16 4 18 8 9 19 -9 11 -8 14 6 14 9 0 25 10 34 21 10 12 29 22 44
22 15 0 27 5 27 12 0 7 13 18 29 23 16 6 64 36 107 68 43 32 98 68 123 82 25
13 58 35 74 50 15 14 27 21 27 15 0 -6 -6 -14 -12 -16 -10 -4 -10 -6 0 -6 13
-1 123 55 198 100 29 18 44 17 44 -3 0 -4 -6 -8 -14 -8 -22 0 -76 -34 -76 -47
0 -7 -12 -15 -27 -19 -35 -7 -95 -38 -150 -77 -23 -16 -48 -27 -56 -24 -8 3
-25 -5 -38 -19 -18 -19 -19 -23 -6 -18 12 4 16 2 12 -7 -3 -8 -30 -25 -60 -39
-30 -14 -55 -28 -55 -31 0 -3 -14 -20 -31 -37 -17 -18 -27 -32 -21 -32 6 0 13
4 17 9 7 13 64 41 82 41 15 0 18 -26 4 -34 -10 -6 -21 -66 -12 -66 11 0 93 31
120 44 27 14 101 28 101 20 0 -3 -29 -18 -64 -34 -35 -16 -66 -36 -69 -44 -4
-9 -14 -12 -26 -9 -12 3 -21 1 -21 -6 0 -5 7 -8 15 -5 8 4 15 3 15 0 0 -11
-54 -55 -67 -56 -7 0 -13 -4 -13 -10 0 -5 -11 -12 -24 -16 -14 -3 -23 -11 -21
-17 3 -7 -27 -34 -66 -62 -39 -27 -83 -60 -99 -72 -15 -13 -33 -23 -38 -23 -6
0 -22 -11 -36 -25 -14 -14 -34 -25 -46 -25 -11 0 -23 -7 -26 -15 -4 -8 -15
-15 -27 -15 -11 0 -45 -14 -75 -31 -57 -32 -75 -34 -42 -4 11 10 20 24 20 32
0 7 5 13 10 13 6 0 10 7 10 15 0 10 -10 15 -32 15 -18 0 -28 -4 -22 -8 18 -11
-2 -51 -32 -62 -15 -6 -67 -38 -117 -71 -49 -33 -123 -78 -163 -100 -41 -23
-74 -44 -74 -49 0 -4 -20 -20 -44 -34 -42 -25 -61 -48 -49 -60 3 -3 25 12 48
33 44 41 105 77 105 64 0 -5 -18 -19 -40 -33 -41 -26 -47 -34 -30 -45 14 -8
13 -48 -2 -63 -6 -6 -9 -15 -5 -18 3 -4 29 10 57 31 28 21 54 34 58 30 7 -6
-10 -23 -109 -108 -37 -32 -38 -35 -9 -16 19 13 59 41 88 62 29 22 55 37 58
35 9 -10 -92 -93 -167 -137 -84 -49 -139 -97 -139 -121 0 -9 -6 -22 -12 -29
-11 -11 -8 -13 12 -9 14 3 34 9 45 13 16 6 16 3 -5 -15 -22 -19 -22 -21 -5
-17 11 3 29 8 40 12 13 4 8 -4 -14 -23 -41 -35 -31 -44 38 -33 28 4 54 5 57 0
2 -4 19 -3 36 3 24 9 33 8 36 -1 3 -9 7 -9 18 0 7 6 19 9 26 6 7 -2 38 8 68
23 30 15 70 31 89 35 l35 7 -32 -40 c-18 -22 -27 -42 -21 -44 5 -2 -5 -24 -24
-48 -52 -69 -62 -91 -46 -101 8 -5 20 -9 27 -9 9 0 11 -7 7 -20 -8 -26 7 -26
30 0 10 11 22 20 28 20 10 0 71 50 129 106 20 20 41 33 47 30 7 -5 0 -16 -17
-31 -15 -13 -24 -26 -20 -30 3 -4 40 26 82 65 42 40 76 67 76 61 0 -7 5 -9 10
-6 6 3 10 1 10 -4 0 -6 -6 -11 -14 -11 -22 0 -133 -109 -120 -118 20 -13 23
-54 6 -81 l-17 -26 38 29 c21 16 42 36 47 45 4 9 12 13 15 9 11 -10 -88 -111
-172 -175 -40 -30 -73 -59 -73 -64 0 -10 65 17 96 39 13 10 22 22 21 27 -2 13
118 125 135 125 6 0 -15 -27 -48 -59 -33 -33 -66 -71 -74 -85 -7 -14 -37 -40
-67 -56 -52 -30 -65 -42 -40 -39 36 5 46 -2 53 -38 8 -42 31 -73 55 -73 9 0
20 -7 23 -16 6 -17 39 -16 81 1 18 8 19 7 5 -10 -11 -14 -12 -19 -2 -22 16 -6
16 -45 0 -62 -11 -11 -8 -13 18 -8 42 8 71 -24 55 -59 -6 -13 -8 -30 -5 -37 5
-15 -29 -41 -152 -114 -107 -63 -184 -122 -184 -139 0 -18 19 -18 26 0 7 18
112 92 119 84 3 -3 -13 -17 -36 -32 -30 -20 -38 -31 -30 -39 15 -15 14 -60 -1
-75 -6 -6 -9 -14 -6 -17 2 -3 30 13 61 36 86 61 72 23 -17 -47 -41 -33 -69
-62 -64 -65 5 -4 -24 -32 -65 -63 -61 -45 -76 -62 -80 -89 -2 -17 -3 -33 -2
-35 2 -2 18 4 37 14 l33 17 -24 -27 c-28 -30 -23 -33 20 -10 41 21 49 11 10
-12 -53 -31 -39 -42 47 -39 42 2 85 6 95 10 11 5 17 3 17 -5 0 -10 3 -10 15 0
8 7 22 10 30 6 9 -3 43 8 76 25 34 16 72 29 85 27 l24 -3 -27 -29 c-18 -20
-23 -31 -15 -34 9 -3 6 -14 -11 -36 -78 -101 -87 -126 -46 -126 16 0 18 -5 13
-26 -6 -24 -5 -25 13 -15 12 6 23 17 27 26 3 8 12 15 20 15 8 0 32 16 53 35
21 19 45 37 55 40 9 3 23 17 32 30 9 14 24 25 33 25 13 0 10 -7 -12 -30 -57
-59 -6 -29 66 40 41 38 76 65 77 60 2 -6 9 -7 15 -3 7 4 6 -1 -2 -10 -7 -9
-17 -15 -21 -12 -5 3 -17 -6 -28 -20 -11 -14 -24 -25 -28 -26 -13 -1 -68 -69
-56 -69 6 0 13 -14 17 -31 5 -22 2 -36 -11 -50 -33 -37 0 -19 43 23 24 23 43
38 43 32 0 -12 -147 -156 -208 -203 -24 -18 -41 -35 -38 -38 7 -8 90 32 105
51 12 15 12 16 -5 10 -13 -5 -16 -4 -9 3 25 24 156 133 161 133 3 0 -6 -15
-19 -33 -14 -17 -22 -39 -20 -47 3 -10 2 -11 -4 -3 -10 15 -53 -20 -78 -64
-11 -18 -30 -37 -45 -43 -14 -6 -38 -21 -54 -34 l-30 -23 31 4 c30 5 32 3 38
-31 4 -20 13 -40 20 -44 8 -4 14 -11 14 -17 0 -5 8 -12 18 -13 10 -2 23 -11
30 -19 9 -12 22 -14 54 -9 36 6 40 5 30 -8 -9 -11 -9 -15 0 -18 16 -5 21 -39
7 -55 -17 -20 -7 -23 35 -8 34 12 38 11 32 -3 -3 -8 -1 -19 6 -22 8 -5 6 -16
-5 -38 -11 -22 -13 -33 -5 -38 8 -5 4 -12 -10 -24 -20 -14 -21 -18 -7 -29 13
-11 17 -11 22 3 6 16 34 23 34 8 0 -12 -34 -42 -48 -42 -6 0 -16 -9 -22 -20
-12 -22 -39 -27 -36 -7 0 6 -3 12 -9 12 -5 0 -10 -5 -10 -11 0 -13 -25 -38
-47 -47 -24 -9 -23 -28 2 -34 26 -7 25 -20 -2 -43 l-23 -19 37 2 c20 2 40 6
44 10 4 4 21 7 38 7 l31 -1 -28 -24 c-15 -14 -39 -25 -53 -25 -14 0 -39 -7
-56 -16 -26 -13 -29 -20 -24 -45 4 -22 2 -29 -10 -29 -8 0 -13 4 -9 9 3 5 1
12 -4 16 -14 8 -68 -28 -64 -42 3 -7 -2 -13 -9 -13 -8 0 -20 -10 -27 -23 -7
-13 -26 -28 -43 -35 -16 -6 -27 -15 -24 -21 7 -11 96 30 116 54 7 8 20 15 29
15 9 0 27 7 40 17 18 12 28 13 41 5 19 -12 40 1 40 25 0 7 7 13 15 13 7 0 18
6 22 14 12 21 96 56 107 45 14 -13 26 -11 26 4 0 15 31 44 67 65 31 17 39 15
22 -5 -8 -10 -20 -29 -27 -41 -12 -22 -12 -23 7 -17 16 5 21 2 21 -10 0 -9 9
-19 20 -22 11 -3 20 -12 20 -19 0 -8 2 -14 4 -14 8 0 275 162 431 261 87 56
178 108 200 116 23 7 63 32 90 55 28 22 67 49 88 58 62 28 166 104 164 120 -1
8 21 28 50 46 70 42 195 59 140 20 -9 -7 -17 -17 -17 -21 0 -8 45 -2 73 10 14
6 17 2 17 -19 0 -20 -8 -31 -31 -44 -17 -9 -43 -26 -58 -38 -32 -26 -122 -74
-138 -74 -7 0 -17 -9 -23 -21 -7 -13 -17 -18 -27 -15 -16 7 -69 -21 -59 -31 8
-8 -58 -59 -138 -105 -45 -27 -71 -37 -75 -29 -5 7 -31 -4 -77 -32 -38 -24
-78 -46 -87 -50 -20 -8 -23 13 -4 32 27 29 -75 -48 -148 -112 -43 -37 -84 -67
-92 -67 -7 0 -23 -12 -36 -26 -12 -14 -38 -34 -58 -44 -20 -11 -43 -30 -53
-44 -10 -16 -26 -26 -41 -26 -14 0 -25 -5 -25 -11 0 -7 11 -9 29 -6 21 4 31 2
35 -9 3 -8 10 -12 16 -9 5 3 10 -1 10 -9 0 -11 -9 -16 -27 -16 -14 0 -34 -6
-42 -14 -27 -23 -79 -28 -90 -8 -7 12 -13 13 -18 6 -5 -6 -18 -14 -30 -18 -32
-10 -28 -23 10 -32 51 -12 77 -11 77 3 0 7 8 14 18 14 9 1 30 2 46 3 15 1 34
10 41 19 7 9 18 17 24 17 7 0 22 10 35 23 12 12 30 23 38 23 23 2 162 98 149
102 -17 6 19 31 44 32 27 1 55 23 55 44 0 10 5 14 10 11 6 -4 7 -11 4 -17 -12
-18 18 -4 113 57 145 93 242 159 238 163 -2 2 -21 -8 -42 -22 -43 -30 -53 -32
-53 -12 0 8 -6 16 -12 19 -7 2 -10 8 -5 12 4 5 13 0 20 -10 13 -17 15 -17 42
1 l29 19 -29 5 c-28 5 -25 8 60 58 62 37 97 52 113 49 18 -3 26 0 29 14 3 10
9 16 14 13 5 -3 35 9 66 26 44 25 72 33 127 37 39 3 76 8 81 13 6 4 26 10 45
13 19 3 43 8 53 12 9 4 17 3 17 -3 0 -5 -12 -13 -26 -16 -41 -11 -20 -19 26
-11 27 5 52 18 69 36 16 16 35 29 44 29 9 0 19 5 22 10 8 13 65 13 65 0 0 -5
-7 -10 -15 -10 -8 0 -12 -6 -9 -14 8 -21 55 -7 81 25 13 15 39 33 58 39 32 11
39 21 38 58 -1 6 3 12 8 12 8 0 13 -15 10 -32 -2 -13 35 -9 63 5 14 8 23 17
20 20 -3 3 8 13 25 21 16 9 34 22 38 28 12 19 52 40 63 33 5 -3 21 2 35 11 14
9 40 17 57 16 19 0 63 17 119 49 89 50 115 78 62 64 -44 -10 -15 12 43 34 27
10 58 22 69 26 12 5 -1 -14 -30 -44 -27 -28 -55 -51 -62 -51 -7 0 -13 -4 -13
-10 0 -13 13 -13 26 0 6 6 21 12 33 15 36 7 71 33 73 55 0 11 1 26 2 33 1 16
17 27 38 27 14 0 16 -6 12 -32 l-5 -33 25 30 c14 17 26 24 26 18 0 -22 36 -14
106 22 38 20 73 34 80 31 20 -8 48 19 41 38 -5 12 -13 15 -28 11 -15 -5 -19
-4 -15 4 4 6 17 11 28 11 11 0 28 8 37 18 9 11 43 24 81 31 36 7 74 14 85 17
11 2 6 -3 -12 -12 -33 -18 -52 -44 -31 -44 6 0 42 14 80 31 64 30 89 59 51 59
-13 0 -9 8 17 30 19 16 41 30 48 30 7 0 20 4 30 10 20 11 138 59 167 67 18 6
19 5 6 -11 -8 -9 -28 -24 -44 -32 -47 -25 -24 -27 37 -3 41 15 56 25 52 35 -3
8 -3 35 1 60 6 43 9 47 52 67 38 17 42 21 24 24 -12 3 -32 -1 -44 -7 -26 -15
-45 0 -34 27 8 17 8 17 12 1 5 -22 19 -23 27 -2 3 8 10 13 16 9 5 -3 21 12 35
33 20 30 37 42 81 56 30 10 58 24 61 31 2 8 30 24 61 35 31 12 62 26 69 31 16
14 73 20 73 9 0 -6 -6 -10 -14 -10 -18 0 -46 -38 -46 -63 0 -14 5 -17 17 -13
9 4 20 1 24 -6 11 -16 40 0 53 29 5 11 18 26 28 32 15 9 18 8 18 -5 0 -13 3
-14 15 -4 8 6 19 9 25 5 5 -3 23 2 40 11 16 10 33 14 37 10 11 -11 -26 -36
-53 -36 -13 0 -24 -8 -27 -21 -3 -11 -19 -25 -36 -32 -17 -6 -31 -15 -31 -19
0 -15 35 -7 79 17 23 14 48 25 54 25 6 0 21 10 34 21 18 18 25 20 38 9 12 -10
16 -8 25 15 14 37 14 37 -20 30 -16 -4 -30 -4 -30 -1 0 10 104 66 123 66 16 0
24 30 11 43 -8 7 -66 -21 -76 -37 -4 -5 -24 -11 -45 -13 -30 -1 -34 0 -20 8 9
6 17 19 17 29 0 24 -1 24 -45 6 -19 -8 -48 -14 -64 -14 -27 1 -29 3 -20 20 6
11 17 17 25 14 8 -3 23 3 34 14 11 11 26 20 33 20 10 0 13 13 11 47 -2 29 2
50 9 55 9 6 9 8 -2 8 -7 0 -11 6 -7 15 3 9 0 15 -10 15 -29 0 -4 17 43 31 43
12 45 14 23 19 -23 6 -21 8 28 34 29 15 58 26 65 25 7 -1 19 0 27 4 8 3 26 8
40 10 14 3 43 10 65 16 32 8 41 7 48 -5 4 -8 17 -23 28 -33 11 -10 18 -28 17
-42 -2 -16 2 -24 12 -24 9 0 15 9 14 23 0 12 5 22 13 22 7 0 13 -7 13 -15 0
-8 5 -15 10 -15 6 0 10 10 10 21 0 20 4 21 45 16 42 -6 45 -5 51 19 4 16 0 39
-10 60 -22 47 -21 51 17 70 55 29 118 86 112 102 -3 8 3 21 12 28 17 12 17 13
1 14 -10 0 -15 6 -13 13 3 6 2 31 -2 54 l-8 42 -52 -19 c-29 -10 -53 -15 -53
-12 0 4 23 20 50 35 l50 28 -22 29 c-13 16 -31 29 -40 29 -21 1 -25 21 -5 21
7 0 22 7 33 15 18 14 17 14 -11 4 -33 -11 -30 -8 31 39 23 18 48 32 56 32 31
0 70 62 72 116 1 12 14 38 29 58 18 23 23 36 15 36 -28 0 -67 26 -73 48 -6 26
-11 27 -58 7 -54 -22 -79 -18 -37 5 l35 20 -37 -6 c-62 -10 -43 9 39 42 76 30
105 58 66 66 -14 3 -7 10 24 28 24 14 43 31 43 38 0 13 -13 16 -24 5 -4 -4
-20 -8 -36 -9 -21 -1 -34 5 -46 23 -16 25 -41 28 -86 8 -12 -5 -25 1 -42 20
-15 16 -27 22 -31 15 -4 -7 -44 -11 -108 -10 -56 0 -119 -2 -141 -6 -29 -5
-37 -4 -31 6 5 8 2 11 -11 7 -61 -17 -126 -28 -131 -23 -3 3 -12 1 -20 -5 -10
-9 -13 -8 -13 3 0 8 32 30 71 48 69 34 103 59 60 45 -12 -3 -21 -2 -21 4 0 5
8 12 19 16 10 3 27 15 37 27 l19 21 -42 -7 c-45 -6 -51 0 -37 38 10 25 75 60
123 66 41 5 72 30 37 30 -9 0 -16 4 -16 10 0 16 -46 23 -69 10 -12 -6 -21 -21
-21 -34 0 -18 -8 -27 -30 -34 -16 -6 -32 -7 -35 -2 -3 4 -44 -7 -92 -25 -49
-18 -90 -29 -92 -24 -1 6 -10 4 -20 -4 -14 -14 -289 -107 -313 -107 -6 0 -8
21 -6 50 1 28 -1 50 -6 50 -4 0 -6 7 -2 15 3 10 -1 15 -11 15 -31 0 1 20 63
40 33 11 44 17 27 14 -88 -15 20 47 112 65 28 5 70 15 94 22 37 10 46 10 49
-1 3 -8 15 -23 28 -35 16 -15 21 -28 17 -43 -4 -16 -1 -22 11 -22 10 0 16 9
16 25 0 30 16 33 25 5 8 -26 25 -26 25 0 0 26 19 34 54 21 23 -10 28 -8 38 14
9 20 8 33 -8 66 -21 47 -28 37 79 113 34 24 53 44 50 53 -3 7 0 20 7 28 9 11
9 15 1 15 -7 0 -9 9 -5 24 3 13 1 27 -5 31 -6 3 -8 17 -5 31 8 29 0 30 -66 4
-60 -24 -57 -11 6 26 24 14 44 29 44 32 -1 15 -51 63 -60 57 -6 -3 -10 -2 -10
3 0 5 14 15 30 22 37 15 34 25 -4 11 -14 -6 -26 -9 -26 -7 0 5 77 57 118 81
39 22 70 67 71 103 1 12 12 40 26 62 30 48 30 50 5 43 -11 -3 -20 0 -20 6 0 6
-6 11 -13 11 -7 0 -18 13 -24 30 -11 29 -12 29 -45 16 -55 -23 -78 -28 -78
-18 0 6 11 13 25 16 14 4 25 11 25 16 0 6 -9 6 -26 0 -31 -12 -34 -12 -34 -1
0 5 33 23 73 39 55 23 73 36 75 52 2 14 0 20 -7 16 -6 -4 -11 -3 -11 2 0 4 18
18 40 31 22 12 40 26 40 31 0 8 -42 5 -77 -5 -6 -2 -19 8 -28 22 -16 23 -21
25 -70 18 -46 -5 -55 -4 -67 14 -13 18 -19 19 -52 10 -20 -6 -70 -8 -111 -5
-43 3 -77 1 -80 -4 -4 -6 -22 -10 -41 -10 -21 0 -33 4 -29 10 6 10 -29 6 -95
-11 -44 -11 -80 -12 -80 -1 0 5 32 24 71 42 72 35 101 57 58 45 -21 -5 -19 -2
11 24 19 17 38 31 43 31 4 0 7 4 7 9 0 5 -17 5 -41 0 -23 -6 -43 -8 -45 -6
-14 13 22 66 62 91 25 16 43 31 40 33 -3 3 -21 -4 -40 -16 -19 -12 -45 -21
-58 -19 -22 3 -558 -169 -558 -179 0 -3 14 -3 30 -1 47 7 35 -9 -22 -30 -91
-33 -98 -35 -98 -19 0 9 -6 17 -12 20 -9 3 -7 9 7 20 18 14 16 15 -25 3 -158
-47 -150 -45 -139 -27 6 9 38 25 72 35 75 24 185 78 169 84 -6 2 -41 -8 -76
-22 -35 -14 -77 -26 -93 -26 -16 0 -60 -13 -98 -30 -80 -34 -104 -38 -85 -15
7 8 23 15 36 15 12 0 26 5 30 11 14 23 -161 0 -244 -32 -88 -33 -93 -34 -66
-14 29 22 4 17 -46 -10 -84 -45 -132 -65 -153 -65 -25 0 -109 -31 -168 -60
-21 -11 -50 -20 -64 -20 -14 0 -25 -5 -25 -11 0 -6 -6 -9 -14 -6 -8 3 -22 0
-32 -8 -10 -7 -23 -11 -29 -9 -6 3 -36 -6 -66 -20 -31 -13 -73 -27 -95 -30
-21 -4 -68 -21 -104 -38 -36 -17 -68 -32 -72 -32 -3 -1 -10 -4 -14 -8 -11 -11
-44 -10 -44 2 0 5 12 18 28 27 15 10 35 27 45 38 13 15 20 17 24 7 4 -10 8
-10 20 0 9 7 39 20 67 29 37 12 51 22 49 34 -1 12 4 15 20 11 12 -3 28 1 37 8
20 17 59 26 65 16 3 -5 -6 -17 -20 -26 -31 -20 -27 -28 7 -15 17 6 27 20 31
40 5 25 13 32 49 42 67 18 113 45 114 69 1 11 3 22 5 23 14 9 100 47 131 58
23 8 34 17 31 26 -7 17 9 17 51 -1 32 -13 33 -13 28 6 -3 14 3 27 19 39 20 16
22 20 9 29 -12 8 -7 17 29 54 38 39 41 44 20 40 -20 -4 -18 -2 6 9 17 8 39 22
50 31 15 12 7 11 -33 -5 -30 -11 -51 -15 -47 -9 3 5 11 10 17 10 19 0 128 71
128 83 0 8 -18 12 -50 12 -30 0 -50 -4 -50 -11 0 -17 -56 -37 -83 -30 -14 3
-39 -2 -60 -13 -37 -19 -47 -7 -14 17 23 17 22 32 -3 32 -11 0 -20 -4 -20 -10
0 -5 -9 -10 -21 -10 -15 0 -19 5 -15 15 3 8 4 15 3 14 -1 0 -31 -9 -67 -20z
m-220 -209 c-20 -13 -33 -13 -25 0 3 6 14 10 23 10 15 0 15 -2 2 -10z m-770
-80 c0 -5 -4 -10 -10 -10 -5 0 -10 5 -10 10 0 6 5 10 10 10 6 0 10 -4 10 -10z
m70 0 c0 -5 -5 -10 -11 -10 -5 0 -7 5 -4 10 3 6 8 10 11 10 2 0 4 -4 4 -10z
m1650 -19 c0 -10 -24 -21 -43 -21 -7 0 -3 7 7 15 22 17 36 19 36 6z m695 -11
c-6 -10 -78 -50 -90 -50 -15 0 9 22 43 40 42 22 56 25 47 10z m-395 -81 c0
-11 -54 -39 -86 -45 -12 -2 -43 -13 -68 -24 -80 -34 -49 -2 41 44 81 40 113
47 113 25z m954 -8 c3 -5 -1 -12 -10 -15 -20 -8 -29 -1 -19 13 8 13 22 14 29
2z m-2184 -31 c0 -5 -2 -10 -4 -10 -3 0 -8 5 -11 10 -3 6 -1 10 4 10 6 0 11
-4 11 -10z m-791 -109 c-21 -18 -49 -28 -49 -17 0 7 64 45 69 41 2 -3 -7 -13
-20 -24z m341 -165 c0 -7 -119 -66 -132 -66 -19 1 94 70 115 70 9 0 17 -2 17
-4z m-1140 -86 c0 -5 -5 -10 -11 -10 -5 0 -7 5 -4 10 3 6 8 10 11 10 2 0 4 -4
4 -10z m-419 -143 c-13 -13 -26 -3 -16 12 3 6 11 8 17 5 6 -4 6 -10 -1 -17z
m-31 -17 c0 -5 -4 -10 -10 -10 -5 0 -10 5 -10 10 0 6 5 10 10 10 6 0 10 -4 10
-10z m91 -30 c-25 -22 -41 -26 -41 -10 0 11 30 29 50 29 10 0 8 -6 -9 -19z
m15 -57 c-10 -10 -19 5 -10 18 6 11 8 11 12 0 2 -7 1 -15 -2 -18z m-116 7 c0
-5 -13 -16 -30 -25 -16 -9 -30 -11 -30 -6 0 8 29 28 58 40 1 1 2 -3 2 -9z m91
-12 c1 -7 1 -20 0 -28 -1 -11 3 -9 14 5 14 17 17 18 25 5 5 -8 10 -20 10 -27
0 -7 7 -10 18 -6 14 5 15 3 5 -8 -7 -7 -13 -21 -13 -31 0 -23 -11 -23 -36 0
-10 9 -26 17 -34 17 -14 0 -33 69 -22 80 10 10 32 5 33 -7z m-71 -57 c0 -32
-24 -48 -47 -30 -11 10 -10 16 8 36 30 30 39 29 39 -6z m-290 -5 c0 -11 -19
-15 -25 -6 -3 5 1 10 9 10 9 0 16 -2 16 -4z m-50 -34 c0 -5 -12 -15 -27 -22
-16 -8 -54 -29 -86 -48 -58 -34 -82 -39 -50 -9 24 21 135 85 151 86 6 1 12 -3
12 -7z m410 -6 c0 -7 -9 -16 -20 -19 -25 -6 -26 8 -2 22 22 13 22 13 22 -3z
m-185 -8 c-11 -6 -26 -17 -32 -26 -7 -9 -16 -12 -20 -9 -10 11 29 46 52 46
l20 0 -20 -11z m292 -44 c-15 -14 -40 -28 -55 -30 -34 -6 -72 -31 -72 -47 0
-14 -63 -57 -85 -57 -34 0 -10 28 67 80 81 54 128 78 158 79 9 1 5 -8 -13 -25z
m-357 0 c0 -8 -5 -12 -10 -9 -6 4 -8 11 -5 16 9 14 15 11 15 -7z m-33 -19 c-4
-8 -11 -15 -17 -15 -7 0 -7 6 0 21 13 23 26 19 17 -6z m-17 -65 c0 -34 -2 -35
-30 -18 -18 11 -18 14 -3 30 23 26 33 22 33 -12z m6 -137 c-10 -10 -19 5 -10
18 6 11 8 11 12 0 2 -7 1 -15 -2 -18z m-186 -181 c0 -11 -56 -52 -70 -52 -6 0
-24 -7 -40 -15 -67 -35 -10 20 64 61 25 14 46 17 46 6z m4410 -102 c0 -13 -78
-52 -93 -47 -7 2 11 16 38 30 59 31 55 29 55 17z m-430 -15 c0 -9 -60 -35 -88
-38 -15 -2 -33 -7 -40 -11 -14 -8 -15 3 -3 23 5 8 16 11 24 8 9 -3 20 0 25 6
10 11 82 22 82 12z m-150 -15 c0 -5 -5 -10 -11 -10 -5 0 -7 5 -4 10 3 6 8 10
11 10 2 0 4 -4 4 -10z m178 -54 c-2 -5 -19 -11 -38 -12 -35 -3 -35 -3 -10 11
27 16 53 16 48 1z m962 -16 c0 -5 -9 -10 -20 -10 -11 0 -20 5 -20 10 0 6 9 10
20 10 11 0 20 -4 20 -10z m-5780 -605 c-7 -8 -20 -15 -29 -15 -13 1 -13 3 3
15 26 19 42 19 26 0z m390 -339 c0 -3 -4 -8 -10 -11 -5 -3 -10 -1 -10 4 0 6 5
11 10 11 6 0 10 -2 10 -4z m318 -368 c-6 -16 -36 -34 -44 -25 -9 9 15 37 33
37 8 0 13 -5 11 -12z m3988 -26 c-5 -13 1 -21 21 -28 l28 -10 -31 -16 c-34
-18 -58 -10 -48 15 7 20 -16 23 -47 7 -10 -6 -19 -7 -19 -2 0 5 10 13 23 19
25 12 70 31 75 32 2 1 1 -7 -2 -17z m294 8 c0 -5 -7 -10 -15 -10 -8 0 -15 5
-15 10 0 6 7 10 15 10 8 0 15 -4 15 -10z m-212 -17 c-2 -9 -8 -18 -15 -20 -7
-3 -9 3 -6 16 6 25 26 28 21 4z m-4138 -13 c0 -5 -7 -10 -15 -10 -8 0 -15 5
-15 10 0 6 7 10 15 10 8 0 15 -4 15 -10z m3840 -30 c0 -5 -8 -10 -17 -10 -15
0 -16 2 -3 10 19 12 20 12 20 0z m95 -20 c3 -5 1 -10 -4 -10 -6 0 -11 5 -11
10 0 6 2 10 4 10 3 0 8 -4 11 -10z m-115 -60 c0 -11 -12 -22 -31 -29 -45 -16
-59 -14 -59 8 0 13 9 21 30 26 16 4 32 11 36 16 8 14 24 1 24 -21z m-40 -189
c0 -5 -7 -14 -15 -21 -8 -7 -15 -9 -15 -5 0 4 -6 3 -12 -3 -18 -13 -78 -26
-78 -15 0 4 24 18 53 30 59 25 67 27 67 14z m-4000 -72 c0 -5 -4 -9 -10 -9 -5
0 -10 7 -10 16 0 8 5 12 10 9 6 -3 10 -10 10 -16z m3891 -19 c-25 -21 -41 -26
-41 -12 0 9 38 30 55 31 6 0 -1 -9 -14 -19z m-381 6 c0 -3 -4 -8 -10 -11 -5
-3 -10 -1 -10 4 0 6 5 11 10 11 6 0 10 -2 10 -4z m450 -10 c0 -3 -4 -8 -10
-11 -5 -3 -10 -1 -10 4 0 6 5 11 10 11 6 0 10 -2 10 -4z m-4040 -20 c0 -3 -4
-8 -10 -11 -5 -3 -10 -1 -10 4 0 6 5 11 10 11 6 0 10 -2 10 -4z m3720 -46 c0
-5 -7 -10 -15 -10 -8 0 -15 5 -15 10 0 6 7 10 15 10 8 0 15 -4 15 -10z m-3726
-184 c-10 -8 -21 -12 -24 -9 -3 2 4 11 14 19 11 7 22 12 25 9 2 -3 -4 -12 -15
-19z m2340 -25 c5 -8 -86 -71 -103 -71 -5 0 -14 -7 -22 -16 -20 -24 -87 -55
-94 -44 -9 15 3 28 46 51 22 11 42 26 46 34 3 8 17 15 32 16 14 0 40 9 56 19
17 10 31 19 32 19 1 1 4 -3 7 -8z m-234 -137 c0 -9 -7 -14 -17 -12 -25 5 -28
28 -4 28 12 0 21 -6 21 -16z m-231 -140 c-15 -19 -69 -47 -76 -40 -5 5 66 54
81 55 5 1 3 -6 -5 -15z m86 6 c-3 -5 -14 -10 -23 -10 -15 0 -15 2 -2 10 20 13
33 13 25 0z m-65 -48 c0 -5 -21 -19 -47 -31 -27 -12 -56 -27 -65 -32 -25 -13
-22 4 3 27 37 33 109 57 109 36z m47 -23 c-2 -27 -77 -72 -113 -67 -25 3 -21
7 42 45 38 23 70 42 71 42 1 1 1 -8 0 -20z m799 6 c-26 -19 -42 -19 -26 0 7 8
20 15 29 15 13 -1 13 -3 -3 -15z m-1011 -160 c-16 -13 -32 -22 -34 -19 -7 6
40 44 54 43 6 0 -3 -11 -20 -24z m705 11 c0 -3 -4 -8 -10 -11 -5 -3 -10 -1
-10 4 0 6 5 11 10 11 6 0 10 -2 10 -4z m-755 -46 c-3 -5 -11 -10 -16 -10 -6 0
-7 5 -4 10 3 6 11 10 16 10 6 0 7 -4 4 -10z m350 -10 c-11 -12 -13 -20 -6 -20
7 0 9 -4 6 -10 -8 -13 -75 -13 -75 0 0 12 59 50 79 50 11 0 10 -5 -4 -20z
m-645 -115 c0 -8 -8 -15 -19 -15 -10 0 -24 -7 -32 -16 -17 -21 -194 -144 -207
-144 -6 0 -31 -16 -56 -35 -25 -19 -63 -43 -85 -54 -22 -12 -42 -25 -46 -31
-8 -12 -25 -13 -25 -1 0 4 26 24 58 44 31 20 71 48 87 62 109 91 282 204 313
205 6 0 12 -7 12 -15z m-662 -17 c-6 -16 -36 -34 -44 -25 -9 9 15 37 33 37 8
0 13 -5 11 -12z m-73 -47 c7 -12 -12 -24 -25 -16 -11 7 -4 25 10 25 5 0 11 -4
15 -9z m45 -7 c0 -2 -7 -4 -15 -4 -8 0 -15 4 -15 10 0 5 7 7 15 4 8 -4 15 -8
15 -10z m812 -124 l21 0 -20 -22 c-11 -13 -23 -31 -26 -40 -9 -24 -27 -23 -27
2 0 10 -8 24 -17 30 -16 9 -15 12 12 35 24 20 31 22 33 10 2 -8 13 -15 24 -15z
m45 -25 c-4 -8 -11 -15 -17 -15 -6 0 -6 7 2 20 14 22 24 19 15 -5z m-130 -21
c4 -10 -7 -26 -31 -46 -22 -18 -35 -36 -32 -44 3 -8 4 -14 2 -14 -3 0 -12 -3
-21 -6 -11 -5 -16 -2 -15 7 6 39 -13 56 -22 21 -3 -11 -22 -23 -47 -31 -23 -6
-45 -19 -48 -27 -3 -8 -13 -14 -23 -14 -11 0 -21 -4 -24 -9 -3 -5 -31 -23 -61
-40 -59 -33 -70 -47 -31 -37 41 10 40 -13 0 -30 -31 -13 -41 -13 -61 -3 -32
17 -25 30 38 62 30 15 119 72 199 126 80 54 151 99 158 100 7 0 15 -6 19 -15z
m-889 -56 c-3 -7 -13 -15 -24 -17 -16 -3 -17 -1 -5 13 16 19 34 21 29 4z m277
-78 c-3 -5 -10 -10 -16 -10 -5 0 -9 5 -9 10 0 6 7 10 16 10 8 0 12 -4 9 -10z
m365 -80 c0 -5 -5 -10 -11 -10 -5 0 -7 5 -4 10 3 6 8 10 11 10 2 0 4 -4 4 -10z
m-30 -24 c0 -3 -4 -8 -10 -11 -5 -3 -10 -1 -10 4 0 6 5 11 10 11 6 0 10 -2 10
-4z"/>
<path d="M4820 6271 c0 -11 9 -25 21 -31 19 -11 20 -9 17 17 -4 34 -38 46 -38
14z"/>
<path d="M6050 6270 c-12 -23 -6 -40 16 -40 8 0 14 10 14 24 0 33 -16 42 -30
16z"/>
<path d="M5584 6256 c-8 -22 3 -49 19 -43 6 2 12 14 12 27 0 27 -22 39 -31 16z"/>
<path d="M4602 6204 c1 -9 9 -19 16 -22 9 -3 13 2 10 14 -1 9 -9 19 -16 22 -9
3 -13 -2 -10 -14z"/>
<path d="M4816 6185 c-4 -10 1 -15 14 -15 11 0 20 7 20 15 0 8 -6 15 -14 15
-8 0 -16 -7 -20 -15z"/>
<path d="M2140 6180 c0 -5 7 -10 15 -10 8 0 15 5 15 10 0 6 -7 10 -15 10 -8 0
-15 -4 -15 -10z"/>
<path d="M1480 6130 c-18 -12 -3 -43 24 -48 14 -3 17 2 14 24 -3 31 -16 38
-38 24z"/>
<path d="M3365 6130 c-3 -5 1 -10 9 -10 8 0 18 5 21 10 3 6 -1 10 -9 10 -8 0
-18 -4 -21 -10z"/>
<path d="M3401 6109 c-16 -6 -21 -13 -15 -19 12 -12 74 6 74 21 0 11 -28 11
-59 -2z"/>
<path d="M6360 6010 c0 -13 5 -20 13 -17 6 2 12 10 12 17 0 7 -6 15 -12 18 -8
2 -13 -5 -13 -18z"/>
<path d="M2552 5993 c4 -21 33 -25 33 -3 0 8 -8 16 -18 18 -14 3 -18 -1 -15
-15z"/>
<path d="M4360 5934 c0 -8 5 -12 10 -9 6 3 10 10 10 16 0 5 -4 9 -10 9 -5 0
-10 -7 -10 -16z"/>
<path d="M2123 5883 c-23 -9 -14 -33 11 -33 20 0 36 16 36 36 0 5 -32 4 -47
-3z"/>
<path d="M1838 5873 c6 -2 18 -2 25 0 6 3 1 5 -13 5 -14 0 -19 -2 -12 -5z"/>
<path d="M2200 5867 c-29 -15 -33 -50 -7 -55 23 -5 57 25 57 50 0 21 -15 23
-50 5z"/>
<path d="M2835 5870 c-3 -5 -2 -10 4 -10 5 0 13 5 16 10 3 6 2 10 -4 10 -5 0
-13 -4 -16 -10z"/>
<path d="M2775 5851 c-3 -5 -1 -12 5 -16 12 -7 30 2 30 16 0 12 -27 12 -35 0z"/>
<path d="M2310 5800 c-8 -5 -12 -12 -9 -15 4 -3 12 1 19 10 14 17 11 19 -10 5z"/>
<path d="M6336 5758 c-22 -31 -20 -47 9 -60 41 -18 68 18 49 66 -9 23 -40 20
-58 -6z"/>
<path d="M2096 5724 c-4 -10 -1 -14 6 -12 15 5 23 28 10 28 -5 0 -13 -7 -16
-16z"/>
<path d="M2575 5690 c3 -5 8 -10 11 -10 2 0 4 5 4 10 0 6 -5 10 -11 10 -5 0
-7 -4 -4 -10z"/>
<path d="M2360 5634 c-73 -24 -100 -38 -100 -51 0 -12 7 -10 35 7 19 12 40 20
45 18 6 -2 -12 -17 -40 -33 -27 -16 -53 -37 -56 -47 -3 -10 -12 -18 -20 -18
-8 0 -14 -7 -14 -15 0 -20 9 -19 45 6 17 11 50 31 75 44 70 38 72 39 64 68 -6
28 -8 29 -34 21z"/>
<path d="M1240 5590 c0 -5 5 -10 10 -10 6 0 10 5 10 10 0 6 -4 10 -10 10 -5 0
-10 -4 -10 -10z"/>
<path d="M1430 5510 c0 -5 5 -10 10 -10 6 0 10 5 10 10 0 6 -4 10 -10 10 -5 0
-10 -4 -10 -10z"/>
<path d="M1805 5460 c3 -5 8 -10 11 -10 2 0 4 5 4 10 0 6 -5 10 -11 10 -5 0
-7 -4 -4 -10z"/>
<path d="M1865 5383 c-39 -21 -80 -53 -67 -53 13 0 72 31 90 48 22 20 10 22
-23 5z"/>
<path d="M1330 5380 c0 -5 7 -10 15 -10 8 0 15 5 15 10 0 6 -7 10 -15 10 -8 0
-15 -4 -15 -10z"/>
<path d="M1561 5253 c0 -25 1 -26 9 -8 12 27 12 35 0 35 -5 0 -10 -12 -9 -27z"/>
<path d="M1280 5234 c0 -9 5 -14 12 -12 18 6 21 28 4 28 -9 0 -16 -7 -16 -16z"/>
<path d="M1205 5185 c-27 -22 -28 -24 -7 -20 21 4 52 27 52 39 0 12 -16 5 -45
-19z"/>
<path d="M1125 5129 c-4 -6 -5 -13 -2 -16 7 -7 27 6 27 18 0 12 -17 12 -25 -2z"/>
<path d="M6423 5124 c-7 -19 11 -39 26 -30 16 10 13 33 -4 40 -9 3 -18 -1 -22
-10z"/>
<path d="M6584 5129 c-7 -12 15 -31 28 -23 4 3 8 12 8 20 0 17 -26 19 -36 3z"/>
<path d="M6250 5015 c0 -8 7 -15 15 -15 8 0 15 7 15 15 0 8 -7 15 -15 15 -8 0
-15 -7 -15 -15z"/>
<path d="M6370 4955 c0 -8 7 -15 15 -15 8 0 15 7 15 15 0 8 -7 15 -15 15 -8 0
-15 -7 -15 -15z"/>
<path d="M1410 4915 c-8 -9 -8 -15 -2 -15 12 0 26 19 19 26 -2 2 -10 -2 -17
-11z"/>
<path d="M1528 4922 c-10 -2 -18 -7 -18 -12 0 -5 7 -7 17 -3 13 5 15 2 11 -15
-7 -26 7 -29 21 -4 9 14 12 15 20 3 5 -8 16 -11 25 -8 18 7 20 16 6 37 -8 13
-13 13 -31 2 -12 -8 -24 -10 -28 -5 -3 5 -14 7 -23 5z"/>
<path d="M6190 4921 c0 -6 5 -13 10 -16 6 -3 10 1 10 9 0 9 -4 16 -10 16 -5 0
-10 -4 -10 -9z"/>
<path d="M1190 4910 c0 -5 5 -10 10 -10 6 0 10 5 10 10 0 6 -4 10 -10 10 -5 0
-10 -4 -10 -10z"/>
<path d="M6137 4914 c-10 -10 12 -44 29 -44 10 0 14 8 12 22 -3 22 -27 35 -41
22z"/>
<path d="M6391 4871 c-12 -21 -5 -31 21 -31 19 0 22 8 12 34 -8 21 -21 20 -33
-3z"/>
<path d="M6180 4830 c0 -5 5 -10 10 -10 6 0 10 5 10 10 0 6 -4 10 -10 10 -5 0
-10 -4 -10 -10z"/>
<path d="M1380 4820 c-20 -12 -10 -19 14 -10 11 3 15 9 10 13 -6 3 -16 2 -24
-3z"/>
<path d="M5666 4782 c-11 -11 -6 -53 8 -58 17 -7 98 35 90 47 -3 5 -10 7 -15
4 -5 -3 -24 -2 -43 4 -19 5 -37 6 -40 3z"/>
<path d="M1340 4770 c0 -5 4 -10 9 -10 6 0 13 5 16 10 3 6 -1 10 -9 10 -9 0
-16 -4 -16 -10z"/>
<path d="M1276 4744 c-4 -10 -1 -14 6 -12 15 5 23 28 10 28 -5 0 -13 -7 -16
-16z"/>
<path d="M6395 4730 c3 -5 8 -10 11 -10 2 0 4 5 4 10 0 6 -5 10 -11 10 -5 0
-7 -4 -4 -10z"/>
<path d="M6226 4711 c-28 -31 -13 -71 26 -71 23 0 32 22 24 54 -8 31 -30 39
-50 17z"/>
<path d="M1188 4706 c-10 -7 -18 -16 -18 -20 0 -3 8 -6 18 -6 18 1 52 22 52
34 0 11 -34 6 -52 -8z"/>
<path d="M1112 4658 c-14 -14 -16 -28 -3 -28 9 0 24 30 18 36 -2 2 -9 -2 -15
-8z"/>
<path d="M5580 4650 c-8 -5 -11 -12 -7 -16 4 -4 13 -2 19 4 15 15 7 24 -12 12z"/>
<path d="M6700 4615 c0 -8 7 -15 15 -15 8 0 15 7 15 15 0 8 -7 15 -15 15 -8 0
-15 -7 -15 -15z"/>
<path d="M6235 4599 c-10 -15 3 -25 16 -12 7 7 7 13 1 17 -6 3 -14 1 -17 -5z"/>
<path d="M1021 4564 c0 -11 3 -14 6 -6 3 7 2 16 -1 19 -3 4 -6 -2 -5 -13z"/>
<path d="M6687 4373 c-27 -31 -25 -56 5 -67 49 -17 78 32 40 67 -23 21 -25 21
-45 0z"/>
<path d="M846 3832 c-48 -33 -57 -52 -24 -52 35 0 81 32 83 58 2 29 -11 27
-59 -6z"/>
<path d="M6762 3723 c5 -26 38 -29 38 -4 0 15 -6 21 -21 21 -14 0 -19 -5 -17
-17z"/>
<path d="M6530 3669 c0 -5 5 -7 10 -4 6 3 10 8 10 11 0 2 -4 4 -10 4 -5 0 -10
-5 -10 -11z"/>
<path d="M6595 3629 c-10 -15 1 -23 20 -15 9 3 13 10 10 16 -8 13 -22 13 -30
-1z"/>
<path d="M6484 3515 c-9 -24 22 -53 38 -37 9 9 10 17 2 29 -15 24 -33 27 -40
8z"/>
<path d="M6429 3422 c-14 -12 -20 -25 -16 -35 9 -23 99 -24 117 -2 7 8 10 16
6 16 -3 1 -10 2 -14 3 -5 0 -16 9 -26 19 -22 22 -38 22 -67 -1z"/>
<path d="M6000 3377 c0 -49 20 -57 74 -29 39 19 46 32 19 32 -10 0 -35 3 -55
6 -30 5 -38 3 -38 -9z"/>
<path d="M6735 3340 c3 -5 10 -10 16 -10 5 0 9 5 9 10 0 6 -7 10 -16 10 -8 0
-12 -4 -9 -10z"/>
<path d="M6563 3307 c-14 -31 1 -57 33 -57 30 0 40 23 26 56 -15 30 -46 31
-59 1z"/>
<path d="M898 3290 c-27 -24 -30 -32 -19 -39 37 -24 131 19 118 53 -11 27 -63
20 -99 -14z"/>
<path d="M6231 3266 c-9 -11 -9 -19 1 -35 17 -27 27 -26 37 2 15 41 -12 64
-38 33z"/>
<path d="M6313 3254 c-8 -21 23 -52 38 -37 8 8 7 17 -3 32 -15 25 -26 27 -35
5z"/>
<path d="M5915 3250 c-3 -5 1 -10 9 -10 9 0 16 5 16 10 0 6 -4 10 -9 10 -6 0
-13 -4 -16 -10z"/>
<path d="M6145 3250 c3 -5 8 -10 11 -10 2 0 4 5 4 10 0 6 -5 10 -11 10 -5 0
-7 -4 -4 -10z"/>
<path d="M6185 3210 c-3 -5 -2 -10 4 -10 5 0 13 5 16 10 3 6 2 10 -4 10 -5 0
-13 -4 -16 -10z"/>
<path d="M6103 3203 c-18 -6 -16 -23 1 -23 17 0 30 16 19 23 -5 2 -14 2 -20 0z"/>
<path d="M6572 3198 c6 -18 28 -21 28 -4 0 9 -7 16 -16 16 -9 0 -14 -5 -12
-12z"/>
<path d="M5907 3184 c-13 -13 -7 -24 14 -24 11 0 19 5 17 12 -5 14 -22 21 -31
12z"/>
<path d="M6490 3099 c0 -26 3 -30 18 -24 9 5 25 8 34 9 15 0 15 3 -4 23 -30
32 -48 29 -48 -8z"/>
<path d="M6355 3107 c-4 -10 -5 -21 -1 -24 10 -10 18 4 13 24 -4 17 -4 17 -12
0z"/>
<path d="M6032 3083 c5 -26 38 -29 38 -4 0 15 -6 21 -21 21 -14 0 -19 -5 -17
-17z"/>
<path d="M6647 3080 c-4 -14 2 -25 17 -36 27 -17 56 -9 56 15 0 41 -63 58 -73
21z"/>
<path d="M6126 3073 c-9 -9 -7 -33 3 -33 12 0 22 28 12 34 -5 3 -11 3 -15 -1z"/>
<path d="M5944 2995 c-14 -29 -14 -40 -4 -65 13 -32 46 -40 68 -18 8 8 15 8
26 -1 11 -9 16 -9 21 0 4 6 2 15 -5 19 -7 5 -9 16 -5 29 10 33 -19 71 -55 71
-23 0 -32 -7 -46 -35z"/>
<path d="M6350 3019 c0 -5 5 -7 10 -4 6 3 10 8 10 11 0 2 -4 4 -10 4 -5 0 -10
-5 -10 -11z"/>
<path d="M6510 2983 c0 -17 19 -35 29 -29 18 12 12 36 -9 36 -11 0 -20 -3 -20
-7z"/>
<path d="M6435 2960 c-3 -5 -2 -10 4 -10 5 0 13 5 16 10 3 6 2 10 -4 10 -5 0
-13 -4 -16 -10z"/>
<path d="M5630 2935 c-13 -14 -19 -25 -14 -25 11 0 47 40 41 46 -2 2 -14 -7
-27 -21z"/>
<path d="M5520 2920 c0 -5 6 -10 14 -10 8 0 18 5 21 10 3 6 -3 10 -14 10 -12
0 -21 -4 -21 -10z"/>
<path d="M6290 2905 c-14 -8 -33 -12 -42 -9 -13 4 -18 0 -18 -15 0 -18 3 -19
29 -10 16 6 37 19 47 30 20 22 18 23 -16 4z"/>
<path d="M5352 2878 c-21 -21 -13 -26 23 -15 19 6 35 14 35 19 0 12 -44 10
-58 -4z"/>
<path d="M6035 2877 c-4 -10 -5 -21 -1 -24 10 -10 18 4 13 24 -4 17 -4 17 -12
0z"/>
<path d="M5530 2856 c-6 -8 -17 -13 -23 -11 -17 6 -41 -11 -33 -23 7 -11 55
-10 74 1 14 9 17 47 3 47 -5 0 -14 -6 -21 -14z"/>
<path d="M5826 2863 c-11 -11 -6 -23 9 -23 8 0 15 4 15 9 0 13 -16 22 -24 14z"/>
<path d="M6259 2844 c-12 -15 -11 -16 11 -9 35 10 49 25 23 25 -11 0 -27 -7
-34 -16z"/>
<path d="M5336 2821 c-17 -18 -17 -19 1 -23 10 -3 30 1 45 9 15 7 34 10 42 7
9 -3 16 -2 16 4 0 11 -33 22 -66 22 -11 0 -29 -9 -38 -19z"/>
<path d="M6035 2800 c-8 -13 35 -13 55 0 11 7 7 10 -17 10 -17 0 -35 -4 -38
-10z"/>
<path d="M6360 2785 c0 -8 7 -15 15 -15 8 0 15 7 15 15 0 8 -7 15 -15 15 -8 0
-15 -7 -15 -15z"/>
<path d="M5341 2756 c-16 -19 -11 -29 8 -17 7 5 12 14 9 21 -3 9 -8 7 -17 -4z"/>
<path d="M5380 2760 c0 -5 4 -10 9 -10 6 0 13 5 16 10 3 6 -1 10 -9 10 -9 0
-16 -4 -16 -10z"/>
<path d="M5832 2734 c-16 -11 -22 -25 -22 -50 0 -24 4 -34 13 -31 6 2 11 10
10 18 -2 8 10 20 25 26 17 8 28 21 28 33 0 24 -23 26 -54 4z"/>
<path d="M5753 2733 c-7 -2 -9 -11 -6 -19 3 -8 0 -14 -6 -14 -23 0 -10 -18 16
-23 37 -7 48 1 30 21 -8 10 -16 22 -18 28 -2 6 -9 9 -16 7z"/>
<path d="M5677 2694 c-18 -24 -13 -31 11 -15 8 5 12 15 10 24 -2 12 -7 10 -21
-9z"/>
<path d="M5960 2700 c0 -15 5 -20 18 -18 9 2 17 10 17 18 0 8 -8 16 -17 18
-13 2 -18 -3 -18 -18z"/>
<path d="M5208 2703 c-10 -2 -18 -9 -18 -14 0 -13 12 -11 34 6 20 15 16 17
-16 8z"/>
<path d="M5689 2653 c-13 -15 -12 -15 9 -4 23 12 28 21 13 21 -5 0 -15 -7 -22
-17z"/>
<path d="M5700 2626 c-56 -30 -67 -54 -14 -30 22 9 51 21 67 27 15 6 27 15 27
19 0 15 -35 8 -80 -16z"/>
<path d="M4994 2585 c-17 -13 -17 -14 -2 -15 9 0 20 5 23 11 11 17 0 20 -21 4z"/>
<path d="M5582 2569 c-13 -5 -21 -13 -17 -19 4 -6 15 -4 31 6 37 25 30 31 -14
13z"/>
<path d="M5468 2523 c7 -3 16 -2 19 1 4 3 -2 6 -13 5 -11 0 -14 -3 -6 -6z"/>
<path d="M1192 2440 c-46 -33 -58 -66 -19 -55 36 11 72 40 75 64 4 28 -7 27
-56 -9z"/>
<path d="M4645 2451 c-7 -12 31 -25 46 -15 8 4 7 9 -2 15 -18 11 -36 11 -44 0z"/>
<path d="M5160 2400 c0 -5 5 -10 11 -10 5 0 7 5 4 10 -3 6 -8 10 -11 10 -2 0
-4 -4 -4 -10z"/>
<path d="M4690 2380 c0 -5 7 -10 15 -10 8 0 15 5 15 10 0 6 -7 10 -15 10 -8 0
-15 -4 -15 -10z"/>
<path d="M5435 2291 c-9 -16 3 -31 26 -31 14 0 19 6 17 17 -4 20 -33 29 -43
14z"/>
<path d="M4300 2230 c0 -5 5 -10 11 -10 5 0 7 5 4 10 -3 6 -8 10 -11 10 -2 0
-4 -4 -4 -10z"/>
<path d="M4600 2190 c0 -5 7 -10 16 -10 8 0 12 5 9 10 -3 6 -10 10 -16 10 -5
0 -9 -4 -9 -10z"/>
<path d="M4100 2180 c0 -5 4 -10 9 -10 6 0 13 5 16 10 3 6 -1 10 -9 10 -9 0
-16 -4 -16 -10z"/>
<path d="M4345 2180 c3 -5 8 -10 11 -10 2 0 4 5 4 10 0 6 -5 10 -11 10 -5 0
-7 -4 -4 -10z"/>
<path d="M3990 2133 c-98 -52 -106 -58 -65 -49 17 4 38 7 47 7 9 0 19 7 22 14
3 8 23 23 46 35 22 11 40 25 40 30 0 13 8 16 -90 -37z"/>
<path d="M783 2149 c4 -13 7 -27 7 -31 0 -5 5 -8 11 -8 15 0 6 53 -10 58 -10
4 -12 -1 -8 -19z"/>
<path d="M3940 2069 c0 -5 5 -7 10 -4 6 3 10 8 10 11 0 2 -4 4 -10 4 -5 0 -10
-5 -10 -11z"/>
<path d="M4240 2010 c-20 -38 2 -57 65 -57 66 0 74 19 22 55 -41 27 -73 28
-87 2z"/>
<path d="M4100 2010 c0 -5 5 -10 11 -10 5 0 7 5 4 10 -3 6 -8 10 -11 10 -2 0
-4 -4 -4 -10z"/>
<path d="M3805 1940 c-4 -6 -11 -8 -16 -5 -5 4 -9 2 -9 -3 0 -5 11 -9 25 -9
15 0 25 5 25 13 0 16 -16 19 -25 4z"/>
<path d="M1247 1905 c-41 -37 -30 -60 25 -51 51 8 70 23 66 50 -5 32 -56 32
-91 1z"/>
<path d="M3444 1865 c-4 -9 -2 -21 4 -27 15 -15 44 -1 40 19 -4 23 -36 29 -44
8z"/>
<path d="M3590 1830 c-13 -8 -13 -10 2 -10 9 0 20 5 23 10 8 13 -5 13 -25 0z"/>
<path d="M3393 1775 c-3 -9 -3 -18 0 -22 10 -10 37 6 37 22 0 20 -29 20 -37 0z"/>
<path d="M3390 1580 c0 -5 5 -10 10 -10 6 0 10 5 10 10 0 6 -4 10 -10 10 -5 0
-10 -4 -10 -10z"/>
<path d="M1757 1350 c-28 -17 -47 -37 -47 -48 0 -10 -12 -22 -30 -29 -28 -11
-42 -33 -20 -33 19 0 79 45 84 63 2 9 9 17 16 17 6 0 8 -5 4 -12 -5 -8 -2 -9
10 -5 10 4 23 7 29 7 7 0 18 9 25 21 10 16 10 24 1 35 -16 19 -18 18 -72 -16z"/>
<path d="M1570 1205 c-8 -9 -8 -15 -2 -15 12 0 26 19 19 26 -2 2 -10 -2 -17
-11z"/>
<path d="M1876 1205 c-3 -8 -1 -15 3 -15 5 0 11 7 15 15 3 8 1 15 -3 15 -5 0
-11 -7 -15 -15z"/>
<path d="M1928 1213 c7 -3 16 -2 19 1 4 3 -2 6 -13 5 -11 0 -14 -3 -6 -6z"/>
<path d="M1470 1160 c-14 -10 -22 -21 -19 -25 9 -8 53 10 68 29 12 14 11 16
-5 16 -11 0 -30 -9 -44 -20z"/>
<path d="M1820 1090 c-13 -8 -12 -10 3 -10 9 0 17 5 17 10 0 12 -1 12 -20 0z"/>
<path d="M1756 1055 c-11 -8 -18 -17 -15 -19 2 -3 15 4 29 14 14 11 21 20 15
19 -5 0 -19 -6 -29 -14z"/>
<path d="M1125 753 c13 -55 40 -59 29 -5 -4 19 -13 32 -21 32 -11 0 -13 -7 -8
-27z"/>
</g>
</svg>
