<?xml version="1.0" encoding="UTF-8"?>
<svg width="300" height="300" viewBox="0 0 300 300" xmlns="http://www.w3.org/2000/svg">
  <!-- Gota principal -->
  <ellipse cx="150" cy="120" rx="25" ry="35" fill="#0066CC" opacity="0.8"/>
  
  <!-- Salpicaduras principales -->
  <path d="M150 80 Q170 60 190 70 Q180 90 160 85 Z" fill="#0066CC" opacity="0.7"/>
  <path d="M150 80 Q130 60 110 70 Q120 90 140 85 Z" fill="#0066CC" opacity="0.7"/>
  
  <!-- Gotas pequeñas -->
  <ellipse cx="180" cy="90" rx="8" ry="12" fill="#0066CC" opacity="0.6"/>
  <ellipse cx="120" cy="90" rx="8" ry="12" fill="#0066CC" opacity="0.6"/>
  <ellipse cx="170" cy="110" rx="6" ry="10" fill="#0066CC" opacity="0.5"/>
  <ellipse cx="130" cy="110" rx="6" ry="10" fill="#0066CC" opacity="0.5"/>
  
  <!-- Salpicaduras secundarias -->
  <path d="M150 70 Q160 50 175 55 Q165 70 150 65 Z" fill="#0066CC" opacity="0.4"/>
  <path d="M150 70 Q140 50 125 55 Q135 70 150 65 Z" fill="#0066CC" opacity="0.4"/>
  
  <!-- Gotas más pequeñas -->
  <ellipse cx="190" cy="75" rx="4" ry="6" fill="#0066CC" opacity="0.3"/>
  <ellipse cx="110" cy="75" rx="4" ry="6" fill="#0066CC" opacity="0.3"/>
  <ellipse cx="200" cy="95" rx="3" ry="5" fill="#0066CC" opacity="0.2"/>
  <ellipse cx="100" cy="95" rx="3" ry="5" fill="#0066CC" opacity="0.2"/>
  
  <!-- Efectos de brillo -->
  <ellipse cx="145" cy="115" rx="8" ry="12" fill="#FFFFFF" opacity="0.3"/>
  <ellipse cx="175" cy="85" rx="3" ry="5" fill="#FFFFFF" opacity="0.2"/>
  <ellipse cx="125" cy="85" rx="3" ry="5" fill="#FFFFFF" opacity="0.2"/>
</svg> 